<svg width="13" height="15" viewBox="0 0 13 15" fill="none" xmlns="http://www.w3.org/2000/svg">
<path d="M8.66667 6.88158V2.86888C8.66667 2.60714 8.56404 2.35582 8.38082 2.1689L7.21416 0.978613C6.82207 0.578595 6.17793 0.578595 5.78584 0.978613L4.61918 2.1689C4.43596 2.35582 4.33333 2.60714 4.33333 2.86888V3.93421H1C0.447715 3.93421 0 4.38193 0 4.93421V14.25H13V7.88158C13 7.32929 12.5523 6.88158 12 6.88158H8.66667ZM2.88889 12.0541C2.88889 12.453 2.56554 12.7763 2.16667 12.7763V12.7763C1.76779 12.7763 1.44444 12.453 1.44444 12.0541V12.0249C1.44444 11.626 1.76779 11.3026 2.16667 11.3026V11.3026C2.56554 11.3026 2.88889 11.626 2.88889 12.0249V12.0541ZM2.88889 9.10673C2.88889 9.5056 2.56554 9.82895 2.16667 9.82895V9.82895C1.76779 9.82895 1.44444 9.5056 1.44444 9.10673V9.07748C1.44444 8.67861 1.76779 8.35526 2.16667 8.35526V8.35526C2.56554 8.35526 2.88889 8.67861 2.88889 9.07748V9.10673ZM2.88889 6.15936C2.88889 6.55823 2.56554 6.88158 2.16667 6.88158V6.88158C1.76779 6.88158 1.44444 6.55823 1.44444 6.15936V6.13012C1.44444 5.73124 1.76779 5.40789 2.16667 5.40789V5.40789C2.56554 5.40789 2.88889 5.73124 2.88889 6.13012V6.15936ZM7.22222 12.0541C7.22222 12.453 6.89887 12.7763 6.5 12.7763V12.7763C6.10113 12.7763 5.77778 12.453 5.77778 12.0541V12.0249C5.77778 11.626 6.10113 11.3026 6.5 11.3026V11.3026C6.89887 11.3026 7.22222 11.626 7.22222 12.0249V12.0541ZM7.22222 9.10673C7.22222 9.5056 6.89887 9.82895 6.5 9.82895V9.82895C6.10113 9.82895 5.77778 9.5056 5.77778 9.10673V9.07748C5.77778 8.67861 6.10113 8.35526 6.5 8.35526V8.35526C6.89887 8.35526 7.22222 8.67861 7.22222 9.07748V9.10673ZM7.22222 6.15936C7.22222 6.55823 6.89887 6.88158 6.5 6.88158V6.88158C6.10113 6.88158 5.77778 6.55823 5.77778 6.15936V6.13012C5.77778 5.73124 6.10113 5.40789 6.5 5.40789V5.40789C6.89887 5.40789 7.22222 5.73124 7.22222 6.13012V6.15936ZM7.22222 3.21199C7.22222 3.61086 6.89887 3.93421 6.5 3.93421V3.93421C6.10113 3.93421 5.77778 3.61086 5.77778 3.21199V3.18275C5.77778 2.78388 6.10113 2.46053 6.5 2.46053V2.46053C6.89887 2.46053 7.22222 2.78388 7.22222 3.18275V3.21199ZM11.5556 12.0541C11.5556 12.453 11.2322 12.7763 10.8333 12.7763V12.7763C10.4345 12.7763 10.1111 12.453 10.1111 12.0541V12.0249C10.1111 11.626 10.4345 11.3026 10.8333 11.3026V11.3026C11.2322 11.3026 11.5556 11.626 11.5556 12.0249V12.0541ZM11.5556 9.10673C11.5556 9.5056 11.2322 9.82895 10.8333 9.82895V9.82895C10.4345 9.82895 10.1111 9.5056 10.1111 9.10672V9.07748C10.1111 8.67861 10.4345 8.35526 10.8333 8.35526V8.35526C11.2322 8.35526 11.5556 8.67861 11.5556 9.07748V9.10673Z" fill="#203542"/>
</svg>
